<svg width="28" height="28" viewBox="0 0 28 28" fill="none" xmlns="http://www.w3.org/2000/svg">
<path d="M16.0002 7.3335H12.0002C11.632 7.3335 11.3335 7.63197 11.3335 8.00016V9.3335C11.3335 9.70169 11.632 10.0002 12.0002 10.0002H16.0002C16.3684 10.0002 16.6668 9.70169 16.6668 9.3335V8.00016C16.6668 7.63197 16.3684 7.3335 16.0002 7.3335Z" stroke="#2E3032" stroke-linecap="round" stroke-linejoin="round"/>
<path d="M16.6665 8.6665H17.9998C18.3535 8.6665 18.6926 8.80698 18.9426 9.05703C19.1927 9.30708 19.3332 9.64622 19.3332 9.99984V19.3332C19.3332 19.6868 19.1927 20.0259 18.9426 20.276C18.6926 20.526 18.3535 20.6665 17.9998 20.6665H9.99984C9.64622 20.6665 9.30708 20.526 9.05703 20.276C8.80698 20.0259 8.6665 19.6868 8.6665 19.3332V9.99984C8.6665 9.64622 8.80698 9.30708 9.05703 9.05703C9.30708 8.80698 9.64622 8.6665 9.99984 8.6665H11.3332" stroke="#2E3032" stroke-linecap="round" stroke-linejoin="round"/>
<path d="M14 13.3335H16.6667" stroke="#2E3032" stroke-linecap="round" stroke-linejoin="round"/>
<path d="M14 16.6665H16.6667" stroke="#2E3032" stroke-linecap="round" stroke-linejoin="round"/>
<path d="M11.3335 13.3335H11.3402" stroke="#2E3032" stroke-linecap="round" stroke-linejoin="round"/>
<path d="M11.3335 16.6665H11.3402" stroke="#2E3032" stroke-linecap="round" stroke-linejoin="round"/>
</svg>
