<svg width="28" height="28" viewBox="0 0 28 28" fill="none" xmlns="http://www.w3.org/2000/svg">
<path d="M20.1399 16.5934C19.7158 17.5964 19.0525 18.4802 18.2079 19.1676C17.3633 19.855 16.3631 20.325 15.2949 20.5366C14.2267 20.7481 13.1229 20.6948 12.08 20.3813C11.0372 20.0677 10.087 19.5034 9.31262 18.7378C8.53822 17.9722 7.96315 17.0286 7.6377 15.9894C7.31225 14.9501 7.24632 13.847 7.44568 12.7765C7.64503 11.7059 8.10361 10.7005 8.78131 9.84807C9.45901 8.99567 10.3352 8.32226 11.3333 7.88672" stroke="#2E3032" stroke-linecap="round" stroke-linejoin="round"/>
<path d="M20.6667 14.0002C20.6667 13.1247 20.4942 12.2578 20.1592 11.4489C19.8242 10.6401 19.3331 9.90517 18.714 9.28612C18.095 8.66706 17.3601 8.176 16.5512 7.84097C15.7424 7.50593 14.8755 7.3335 14 7.3335V14.0002H20.6667Z" stroke="#2E3032" stroke-linecap="round" stroke-linejoin="round"/>
</svg>
